<svg xmlns="http://www.w3.org/2000/svg" xmlns:xlink="http://www.w3.org/1999/xlink" xmlns:inkscape="http://www.inkscape.org/namespaces/inkscape" version="1.1" width="849.99996" height="849.99996" viewBox="0 0 849.99996 849.99996">
<defs>
<clipPath id="clip_1">
<path transform="matrix(2.7777777,0,0,-2.7777777,25,824.99996)" d="M-9-9H297V297H-9Z" clip-rule="evenodd"/>
</clipPath>
<path id="font_2_53" d="M.23799134 0H.38598634V.61720278H.59498599V.74121096H.02999878V.61720278H.23799134V0Z"/>
<path id="font_2_1" d="M0 0Z"/>
<path id="font_2_38" d="M.09098816 0H.55599978V.12399292H.23899842V.32226563H.49798585V.44625855H.23899842V.61720278H.54499819V.74121096H.09098816V0Z"/>
<path id="font_2_36" d="M.3959961-.013671875C.4889984-.013671875 .56399539 .02331543 .6269989 .093322757L.5519867 .18026734C.5139923 .14030457 .46598817 .11431885 .4059906 .11431885 .2849884 .11431885 .20599365 .21124268 .20599365 .3721161 .20599365 .52897647 .2899933 .6268921 .40098573 .6268921 .45700074 .6268921 .5 .60691836 .5379944 .57095339L.61499026 .658905C.5669861 .7118988 .49198915 .75390627 .397995 .75390627 .21099854 .75390627 .053985597 .61091616 .053985597 .3671112 .053985597 .12031555 .20799256-.013671875 .3959961-.013671875Z"/>
<path id="font_2_41" d="M.09098816 0H.23899842V.3202362H.5189972V0H.66600039V.74121096H.5189972V.4482422H.23899842V.74121096H.09098816V0Z"/>
<path id="font_2_47" d="M.09098816 0H.23199463V.29710389C.23199463 .3821411 .21899414 .47517396 .21299744 .5552063H.21798706C.24099732 .5011749 .2659912 .4451599 .29299928 .39613343L.5059967 0H.6569977V.74121096H.5169983V.4451599C.5169983 .36105348 .5289917 .26301576 .5369873 .18598938H.5319977C.5069885 .2400055 .48298646 .2950287 .45700074 .34605409L.24198914 .74121096H.09098816V0Z"/>
<path id="font_2_48" d="M.3849945-.013671875C.58099368-.013671875 .71598818 .13330078 .71598818 .374115 .71598818 .61390689 .58099368 .75390627 .3849945 .75390627 .18899536 .75390627 .053985597 .61390689 .053985597 .374115 .053985597 .13330078 .18899536-.013671875 .3849945-.013671875M.3849945 .11431885C.2749939 .11431885 .20599365 .2162323 .20599365 .374115 .20599365 .5319824 .2749939 .6268921 .3849945 .6268921 .49499513 .6268921 .5649872 .5319824 .5649872 .374115 .5649872 .2162323 .49499513 .11431885 .3849945 .11431885Z"/>
<path id="font_2_45" d="M.09098816 0H.5399933V.12399292H.23899842V.74121096H.09098816V0Z"/>
<path id="font_2_40" d="M.40899659-.013671875C.5109863-.013671875 .598999 .025314331 .6499939 .07531738V.4091797H.38598634V.2881775H.5169983V.14230347C.49699403 .124313358 .45999146 .11431885 .4249878 .11431885 .2789917 .11431885 .20599365 .21124268 .20599365 .37217713 .20599365 .5310211 .2899933 .6268921 .4139862 .6268921 .47999574 .6268921 .5219879 .6049347 .5589905 .5699768L.6380005 .658905C.58999636 .7098999 .5159912 .75390627 .40899659 .75390627 .21199036 .75390627 .053985597 .61091616 .053985597 .36717225 .053985597 .12031555 .20799256-.013671875 .40899659-.013671875Z"/>
<path id="font_2_58" d="M.21699524 0H.3639984V.2710724L.58699038 .74121096H.43299867L.35899354 .56015017C.33699037 .5051422 .31599427 .453125 .29299928 .3961029H.2889862C.2659912 .453125 .24598694 .5051422 .22499085 .56015017L.15098572 .74121096H-.006011963L.21699524 .2710724V0Z"/>
</defs>
<g clip-path="url(#clip_1)">
<g inkscape:groupmode="layer" inkscape:label="Layer 1">
<path transform="matrix(2.7777777,0,0,-2.7777777,417.69276,320.33085)" d="M0 0C.269-.597-.633-.526 1.203-.679 .436-.758 .911-.714 .581-1.049 .797-1.379 .64-.962 .753-1.554 .812-1.866 .79-1.895 .812-2.198L1.214-5.396C2.739-4.835 24.594 7.818 27.463 9.568 31.798 12.211 31.99 12.693 33.878 11.641L53.438 .472C56.374-1.198 59.218-2.744 62.133-4.515 64.879-6.183 67.991-7.982 70.696-9.335 70.871-13.944 71.03-51.839 70.515-53.388 70.247-53.83 57.124-61.347 55.566-62.216L36.668-73.082C36.216-73.363 33.16-75.188 32.854-75.273 32.054-75.495 29.897-73.95 28.956-73.443 27.655-72.742 26.651-72.103 25.272-71.367 22.713-70.001 20.389-68.534 17.811-67.061 9.007-62.032 11.303-62.321 7.902-64.24 7.119-64.682 6.231-64.955 5.731-65.809 6.425-66.622 25.241-77.341 29.122-79.52 30.218-80.136 31.541-80.625 32.13-81.511 33.178-81.201 32.831-81.167 33.695-80.658 34.214-80.352 34.547-80.229 35.097-79.913L72.799-58.096C73.366-57.735 75.02-56.874 75.256-56.375 75.785-55.26 75.4-18.711 75.38-12.289 75.357-4.791 76.558-6.855 70.044-3.077L32.516 18.383C27.748 16.338 2.31 .313 0 0" fill="#f95a59" fill-rule="evenodd"/>
<path transform="matrix(2.7777777,0,0,-2.7777777,363.6678,444.33775)" d="M0 0C.594 2.741-.53 1.871 1.323 7.313 .161 7.599-26.033 22.915-28.935 24.414-31.025 25.494-30.979 25.318-30.995 28.027L-31.048 58.034C-31.045 61.302-31.267 66.736-30.755 69.702-29.334 70.735-27.546 71.514-26.031 72.432-24.498 73.361-22.91 74.162-21.293 75.131-17.433 77.444 6.58 91.238 7.329 91.232L35.851 75.036C37.773 73.849 44.289 70.398 45.402 69.496L45.497 63.507C46.044 63.64 50.286 65.939 50.675 66.228L50.717 72.434C49.635 73.443 20.882 89.749 18.505 91.053 16.859 91.956 8.571 96.982 7.324 97 5.834 97.022-11.935 86.325-14.625 84.791-16.861 83.516-35.787 72.916-36.047 72.194L-36.098 22.473-4.873 4.556C-4.085 4.119-3.288 3.764-2.502 3.328-1.646 2.853-1.1 2.366-.336 1.923-.208 .666-.486 .556 0 0" fill="#f95a59" fill-rule="evenodd"/>
<path transform="matrix(2.7777777,0,0,-2.7777777,451.6733,414.4558)" d="M0 0-.336-.229C-.388-.256-.452-.298-.511-.325-2.083-1.02-2.933 .171-4.547-.943L-5.182-.368V-19.512C-7.336-21.251-43.362-41.458-43.539-41.453-44.158-41.434-60.893-31.587-62.762-30.485-63.952-29.784-81.366-20.315-81.655-19.247L-81.567 24.004C-80.542 25.526-73.157 28.863-71.152 30.476L-71.167 36.227C-72.495 35.764-85.708 28.094-86.457 27.347-86.975 19.507-86.52 10.16-86.52 2.156-86.52-.545-86.735-21.795-86.382-22.564-86.059-23.268-71.826-31.314-70.406-32.136-66.419-34.447-44.128-47.282-43.329-47.252-42.738-47.231-8.39-27.464-1.479-23.364L-.71-22.915C-.671-22.889-.596-22.831-.564-22.809 .754-21.893-.295-3.528 0 0" fill="#f95a59" fill-rule="evenodd"/>
<path transform="matrix(2.7777777,0,0,-2.7777777,393.67723,362.9811)" d="M0 0-.132-16.296C.68-16.44 1.007-16.361 1.526-16.681 3.413-16.624 3.908-17.431 5.402-17.611L8.316-14.215C6.959-12.066 6.772-11.408 6.803-8.214 6.852-3.239 8.008-4.062 8.281-2.228 6.628-1.64 5.875 .296 4.682 1.383 3.963 1.243 3.269 .852 2.368 .571 1.555 .318 .92 .197 0 0" fill="#ffffff" fill-rule="evenodd"/>
<path transform="matrix(2.7777777,0,0,-2.7777777,394.69279,357.6936)" d="M0 0V-21.376H-1V0Z" fill="#f55d5a"/>
<path transform="matrix(2.7777777,0,0,-2.7777777,405.68806,351.18888)" d="M0 0 10.534-10.534 10.042-11.027-.493-.493Z" fill="#ff2f2b"/>
<path transform="matrix(2.7777777,0,0,-2.7777777,433.24888,386.49223)" d="M0 0-10.534-10.534-10.041-11.027 .493-.493Z" fill="#ff2f2b"/>
<path transform="matrix(2.7777777,0,0,-2.7777777,441.2408,358.41807)" d="M0 0C5.959 0 10.79-4.831 10.79-10.79 10.79-16.749 5.959-21.58 0-21.58-5.959-21.58-10.79-16.749-10.79-10.79-10.79-4.831-5.959 0 0 0" fill="#ff2e2a" fill-rule="evenodd"/>
<path transform="matrix(2.7777777,0,0,-2.7777777,393.9386,302.15666)" d="M0 0C5.959 0 10.79-4.831 10.79-10.79 10.79-16.749 5.959-21.58 0-21.58-5.959-21.58-10.79-16.749-10.79-10.79-10.79-4.831-5.959 0 0 0" fill="#ff2e2a" fill-rule="evenodd"/>
<path transform="matrix(2.7777777,0,0,-2.7777777,389.19529,408.82835)" d="M0 0C5.959 0 10.79-4.831 10.79-10.79 10.79-16.749 5.959-21.58 0-21.58-5.959-21.58-10.79-16.749-10.79-10.79-10.79-4.831-5.959 0 0 0" fill="#ff2e2a" fill-rule="evenodd"/>
<path transform="matrix(2.7777777,0,0,-2.7777777,66.29833,617.33609)" d="M0 0V20.986H7.643C9.986 20.986 11.784 20.556 13.043 19.697 14.302 18.843 14.932 17.629 14.932 16.07 14.932 14.936 14.547 13.947 13.782 13.098 13.013 12.249 12.039 11.659 10.845 11.33V11.27C12.339 11.085 13.533 10.53 14.427 9.616 15.316 8.697 15.766 7.583 15.766 6.264 15.766 4.341 15.076 2.817 13.702 1.689 12.324 .564 10.445 0 8.068 0ZM4.731 17.504V12.528H6.809C7.783 12.528 8.552 12.763 9.112 13.238 9.676 13.713 9.956 14.362 9.956 15.191 9.956 16.735 8.802 17.504 6.499 17.504ZM4.731 9.017V3.482H7.293C8.382 3.482 9.241 3.737 9.861 4.246 10.481 4.75 10.79 5.445 10.79 6.324 10.79 7.163 10.485 7.818 9.876 8.298 9.262 8.777 8.412 9.017 7.318 9.017ZM36.826 0H31.396L28.134 5.4C27.889 5.81 27.655 6.174 27.43 6.499 27.205 6.819 26.98 7.093 26.751 7.323 26.521 7.553 26.281 7.728 26.031 7.853 25.781 7.973 25.512 8.033 25.222 8.033H23.948V0H19.217V20.986H26.711C31.806 20.986 34.354 19.082 34.354 15.281 34.354 14.547 34.239 13.872 34.014 13.253 33.789 12.633 33.475 12.074 33.065 11.574 32.655 11.08 32.161 10.65 31.581 10.291 30.997 9.926 30.352 9.646 29.638 9.441V9.382C29.953 9.281 30.252 9.127 30.547 8.907 30.842 8.687 31.122 8.432 31.396 8.138 31.671 7.843 31.931 7.528 32.181 7.193 32.43 6.859 32.655 6.529 32.86 6.204ZM23.948 17.444V11.604H25.996C27.01 11.604 27.825 11.899 28.439 12.483 29.064 13.078 29.378 13.817 29.378 14.692 29.378 16.53 28.279 17.444 26.081 17.444ZM57.243 0H52.093L50.599 4.671H43.136L41.657 0H36.532L44.175 20.986H49.78ZM49.515 8.298 47.262 15.351C47.097 15.881 46.977 16.51 46.907 17.239H46.792C46.743 16.625 46.623 16.015 46.428 15.411L44.145 8.298ZM78.743 0H73.973L65.321 13.188C64.816 13.957 64.462 14.537 64.267 14.926H64.212C64.287 14.187 64.327 13.053 64.327 11.534V0H59.861V20.986H64.956L73.284 8.212C73.663 7.633 74.013 7.064 74.338 6.499H74.397C74.317 6.984 74.277 7.948 74.277 9.382V20.986H78.743ZM83.539 0V20.986H90.977C98.431 20.986 102.157 17.579 102.157 10.755 102.157 7.488 101.138 4.881 99.105 2.927 97.072 .974 94.364 0 90.977 0ZM88.27 17.139V3.836H90.613C92.661 3.836 94.264 4.451 95.433 5.68 96.597 6.909 97.182 8.582 97.182 10.7 97.182 12.698 96.602 14.272 95.448 15.416 94.289 16.565 92.671 17.139 90.583 17.139ZM104.675 .804V5.49C105.524 4.775 106.448 4.241 107.442 3.886 108.436 3.532 109.44 3.352 110.454 3.352 111.054 3.352 111.573 3.407 112.013 3.512 112.457 3.622 112.827 3.767 113.127 3.961 113.427 4.151 113.646 4.376 113.791 4.631 113.941 4.891 114.011 5.17 114.011 5.475 114.011 5.885 113.896 6.249 113.661 6.569 113.427 6.894 113.107 7.193 112.702 7.463 112.298 7.738 111.818 8.003 111.259 8.252 110.704 8.507 110.105 8.767 109.46 9.032 107.822 9.711 106.598 10.545 105.793 11.534 104.989 12.519 104.59 13.707 104.59 15.101 104.59 16.195 104.804 17.134 105.244 17.919 105.684 18.708 106.283 19.352 107.037 19.862 107.797 20.366 108.671 20.741 109.665 20.981 110.659 21.221 111.713 21.341 112.827 21.341 113.921 21.341 114.89 21.271 115.735 21.141 116.574 21.011 117.353 20.806 118.068 20.531V16.155C117.713 16.4 117.333 16.615 116.918 16.8 116.504 16.985 116.074 17.139 115.635 17.264 115.2 17.384 114.76 17.474 114.326 17.534 113.891 17.589 113.482 17.619 113.092 17.619 112.552 17.619 112.068 17.569 111.628 17.469 111.189 17.364 110.819 17.219 110.514 17.035 110.215 16.85 109.98 16.63 109.81 16.37 109.645 16.11 109.565 15.821 109.565 15.501 109.565 15.146 109.655 14.831 109.84 14.557 110.025 14.277 110.29 14.012 110.634 13.762 110.974 13.517 111.389 13.273 111.878 13.033 112.363 12.793 112.917 12.549 113.532 12.294 114.371 11.944 115.12 11.569 115.79 11.175 116.459 10.78 117.033 10.33 117.508 9.836 117.988 9.336 118.352 8.767 118.607 8.127 118.862 7.493 118.987 6.749 118.987 5.9 118.987 4.726 118.767 3.746 118.322 2.947 117.878 2.153 117.278 1.509 116.514 1.019 115.755 .524 114.87 .17 113.861-.045 112.847-.26 111.783-.365 110.659-.365 109.51-.365 108.416-.27 107.377-.075 106.338 .12 105.434 .415 104.675 .804ZM143.764 0H139.518V12.559C139.518 13.912 139.578 15.411 139.698 17.049H139.578C139.508 16.74 139.433 16.425 139.343 16.115 139.258 15.801 139.168 15.506 139.083 15.226 138.993 14.951 138.908 14.702 138.824 14.482 138.744 14.262 138.674 14.082 138.614 13.947L134.632 6.294H131.326L127.474 13.977C127.434 14.062 127.384 14.202 127.314 14.392 127.244 14.582 127.174 14.812 127.094 15.081 127.019 15.351 126.935 15.651 126.855 15.98 126.77 16.315 126.7 16.67 126.64 17.049H126.51C126.58 16.135 126.625 15.291 126.655 14.517 126.685 13.747 126.7 13.098 126.7 12.574V0H122.439V20.986H128.238L131.94 13.697C132.045 13.463 132.155 13.218 132.26 12.953 132.369 12.688 132.474 12.424 132.574 12.164 132.679 11.899 132.769 11.644 132.854 11.395 132.939 11.145 132.999 10.915 133.039 10.7H133.109C133.169 10.915 133.234 11.155 133.299 11.424 133.369 11.689 133.443 11.964 133.518 12.234 133.598 12.509 133.678 12.773 133.768 13.033 133.858 13.293 133.948 13.523 134.048 13.728L137.849 20.986H143.764ZM167.018 0H161.868L160.374 4.671H152.911L151.432 0H146.307L153.95 20.986H159.555ZM159.29 8.298 157.037 15.351C156.872 15.881 156.752 16.51 156.682 17.239H156.567C156.518 16.625 156.398 16.015 156.203 15.411L153.92 8.298ZM168.672 .804V5.49C169.521 4.775 170.445 4.241 171.439 3.886 172.433 3.532 173.437 3.352 174.451 3.352 175.051 3.352 175.57 3.407 176.01 3.512 176.454 3.622 176.824 3.767 177.124 3.961 177.424 4.151 177.643 4.376 177.788 4.631 177.938 4.891 178.008 5.17 178.008 5.475 178.008 5.885 177.893 6.249 177.658 6.569 177.424 6.894 177.104 7.193 176.699 7.463 176.295 7.738 175.815 8.003 175.256 8.252 174.701 8.507 174.102 8.767 173.457 9.032 171.819 9.711 170.595 10.545 169.79 11.534 168.986 12.519 168.587 13.707 168.587 15.101 168.587 16.195 168.801 17.134 169.241 17.919 169.681 18.708 170.28 19.352 171.034 19.862 171.794 20.366 172.668 20.741 173.662 20.981 174.656 21.221 175.71 21.341 176.824 21.341 177.918 21.341 178.887 21.271 179.732 21.141 180.571 21.011 181.35 20.806 182.064 20.531V16.155C181.71 16.4 181.33 16.615 180.915 16.8 180.501 16.985 180.071 17.139 179.632 17.264 179.197 17.384 178.757 17.474 178.323 17.534 177.888 17.589 177.479 17.619 177.089 17.619 176.549 17.619 176.065 17.569 175.625 17.469 175.186 17.364 174.816 17.219 174.511 17.035 174.211 16.85 173.977 16.63 173.807 16.37 173.642 16.11 173.562 15.821 173.562 15.501 173.562 15.146 173.652 14.831 173.837 14.557 174.022 14.277 174.286 14.012 174.631 13.762 174.971 13.517 175.385 13.273 175.875 13.033 176.359 12.793 176.914 12.549 177.529 12.294 178.368 11.944 179.117 11.569 179.787 11.175 180.456 10.78 181.03 10.33 181.505 9.836 181.985 9.336 182.349 8.767 182.604 8.127 182.859 7.493 182.984 6.749 182.984 5.9 182.984 4.726 182.764 3.746 182.319 2.947 181.875 2.153 181.275 1.509 180.511 1.019 179.751 .524 178.867 .17 177.858-.045 176.844-.26 175.78-.365 174.656-.365 173.507-.365 172.413-.27 171.374-.075 170.335 .12 169.431 .415 168.672 .804ZM204.599 0H199.858V8.547H191.166V0H186.436V20.986H191.166V12.614H199.858V20.986H204.599ZM221.988 0H209.4V20.986H221.503V17.139H214.13V12.469H220.994V8.637H214.13V3.836H221.988ZM242.959 0H237.529L234.267 5.4C234.022 5.81 233.787 6.174 233.563 6.499 233.338 6.819 233.113 7.093 232.883 7.323 232.654 7.553 232.414 7.728 232.164 7.853 231.914 7.973 231.644 8.033 231.355 8.033H230.081V0H225.35V20.986H232.843C237.939 20.986 240.486 19.082 240.486 15.281 240.486 14.547 240.372 13.872 240.147 13.253 239.922 12.633 239.607 12.074 239.197 11.574 238.788 11.08 238.293 10.65 237.714 10.291 237.13 9.926 236.485 9.646 235.771 9.441V9.382C236.085 9.281 236.385 9.127 236.68 8.907 236.974 8.687 237.254 8.432 237.529 8.138 237.804 7.843 238.063 7.528 238.313 7.193 238.563 6.859 238.788 6.529 238.993 6.204ZM230.081 17.444V11.604H232.129C233.143 11.604 233.957 11.899 234.572 12.483 235.196 13.078 235.511 13.817 235.511 14.692 235.511 16.53 234.412 17.444 232.214 17.444ZM243.953 .804V5.49C244.803 4.775 245.727 4.241 246.721 3.886 247.715 3.532 248.719 3.352 249.733 3.352 250.332 3.352 250.852 3.407 251.292 3.512 251.736 3.622 252.106 3.767 252.406 3.961 252.705 4.151 252.925 4.376 253.07 4.631 253.22 4.891 253.29 5.17 253.29 5.475 253.29 5.885 253.175 6.249 252.94 6.569 252.705 6.894 252.385 7.193 251.981 7.463 251.576 7.738 251.097 8.003 250.537 8.252 249.983 8.507 249.383 8.767 248.739 9.032 247.1 9.711 245.877 10.545 245.072 11.534 244.268 12.519 243.868 13.707 243.868 15.101 243.868 16.195 244.083 17.134 244.523 17.919 244.962 18.708 245.562 19.352 246.316 19.862 247.075 20.366 247.95 20.741 248.944 20.981 249.938 21.221 250.992 21.341 252.106 21.341 253.2 21.341 254.169 21.271 255.013 21.141 255.852 21.011 256.632 20.806 257.346 20.531V16.155C256.991 16.4 256.612 16.615 256.197 16.8 255.783 16.985 255.353 17.139 254.913 17.264 254.479 17.384 254.039 17.474 253.604 17.534 253.17 17.589 252.76 17.619 252.371 17.619 251.831 17.619 251.347 17.569 250.907 17.469 250.467 17.364 250.098 17.219 249.793 17.035 249.493 16.85 249.258 16.63 249.089 16.37 248.924 16.11 248.844 15.821 248.844 15.501 248.844 15.146 248.934 14.831 249.119 14.557 249.303 14.277 249.568 14.012 249.913 13.762 250.253 13.517 250.667 13.273 251.157 13.033 251.641 12.793 252.196 12.549 252.81 12.294 253.65 11.944 254.399 11.569 255.068 11.175 255.737 10.78 256.312 10.33 256.787 9.836 257.266 9.336 257.631 8.767 257.886 8.127 258.14 7.493 258.265 6.749 258.265 5.9 258.265 4.726 258.046 3.746 257.601 2.947 257.156 2.153 256.557 1.509 255.793 1.019 255.033 .524 254.149 .17 253.14-.045 252.126-.26 251.062-.365 249.938-.365 248.789-.365 247.695-.27 246.656-.075 245.617 .12 244.712 .415 243.953 .804" fill="#f95a59"/>
</g>
</g>
<use data-text="T" xlink:href="#font_2_53" transform="matrix(33.333333,0,0,-33.333333,280.8861,666.0361)" fill="#fefefe"/>
<use data-text=" " xlink:href="#font_2_1" transform="matrix(33.333333,0,0,-33.333333,301.71946,666.0361)" fill="#fefefe"/>
<use data-text="E" xlink:href="#font_2_38" transform="matrix(33.333333,0,0,-33.333333,309.2861,666.0361)" fill="#fefefe"/>
<use data-text=" " xlink:href="#font_2_1" transform="matrix(33.333333,0,0,-33.333333,329.7861,666.0361)" fill="#fefefe"/>
<use data-text="C" xlink:href="#font_2_36" transform="matrix(33.333333,0,0,-33.333333,337.35276,666.0361)" fill="#fefefe"/>
<use data-text=" " xlink:href="#font_2_1" transform="matrix(33.333333,0,0,-33.333333,359.21943,666.0361)" fill="#fefefe"/>
<use data-text="H" xlink:href="#font_2_41" transform="matrix(33.333333,0,0,-33.333333,366.7861,666.0361)" fill="#fefefe"/>
<use data-text=" " xlink:href="#font_2_1" transform="matrix(33.333333,0,0,-33.333333,392.01945,666.0361)" fill="#fefefe"/>
<use data-text="N" xlink:href="#font_2_47" transform="matrix(33.333333,0,0,-33.333333,399.5861,666.0361)" fill="#fefefe"/>
<use data-text=" " xlink:href="#font_2_1" transform="matrix(33.333333,0,0,-33.333333,424.55278,666.0361)" fill="#fefefe"/>
<use data-text="O" xlink:href="#font_2_48" transform="matrix(33.333333,0,0,-33.333333,432.11946,666.0361)" fill="#fefefe"/>
<use data-text=" " xlink:href="#font_2_1" transform="matrix(33.333333,0,0,-33.333333,457.78614,666.0361)" fill="#fefefe"/>
<use data-text="L" xlink:href="#font_2_45" transform="matrix(33.333333,0,0,-33.333333,465.35279,666.0361)" fill="#fefefe"/>
<use data-text=" " xlink:href="#font_2_1" transform="matrix(33.333333,0,0,-33.333333,484.61949,666.0361)" fill="#fefefe"/>
<use data-text="O" xlink:href="#font_2_48" transform="matrix(33.333333,0,0,-33.333333,492.18614,666.0361)" fill="#fefefe"/>
<use data-text=" " xlink:href="#font_2_1" transform="matrix(33.333333,0,0,-33.333333,517.8528,666.0361)" fill="#fefefe"/>
<use data-text="G" xlink:href="#font_2_40" transform="matrix(33.333333,0,0,-33.333333,525.41946,666.0361)" fill="#fefefe"/>
<use data-text=" " xlink:href="#font_2_1" transform="matrix(33.333333,0,0,-33.333333,549.31948,666.0361)" fill="#fefefe"/>
<use data-text="Y" xlink:href="#font_2_58" transform="matrix(33.333333,0,0,-33.333333,556.88619,666.0361)" fill="#fefefe"/>
</svg>
