<svg xmlns="http://www.w3.org/2000/svg" xmlns:xlink="http://www.w3.org/1999/xlink" xmlns:inkscape="http://www.inkscape.org/namespaces/inkscape" version="1.1" width="849.99996" height="849.99996" viewBox="0 0 849.99996 849.99996">
<defs>
<clipPath id="clip_1">
<path transform="matrix(2.7777777,0,0,-2.7777777,25,824.99996)" d="M-9-9H297V297H-9Z" clip-rule="evenodd"/>
</clipPath>
</defs>
<g clip-path="url(#clip_1)">
<g inkscape:groupmode="layer" inkscape:label="Layer 1">
<path transform="matrix(2.7777777,0,0,-2.7777777,25,824.99996)" d="M141.3694 181.6809C141.6387 181.0837 140.7359 181.1551 142.5728 181.0015 141.8054 180.9224 142.2805 180.9669 141.9506 180.6321 142.1666 180.3016 142.0095 180.7189 142.1223 180.1267 142.1819 179.8152 142.1589 179.7854 142.181 179.4832L142.583 176.2846C144.1086 176.8462 165.9631 189.4986 168.8323 191.2484 173.1677 193.8917 173.359 194.3742 175.2474 193.3223L194.8073 182.1526C197.7437 180.4825 200.5872 178.9373 203.5023 177.1662 206.2485 175.498 209.3601 173.6986 212.0658 172.3456 212.2407 167.7365 212.3991 129.8415 211.8841 128.2924 211.6165 127.8505 198.4932 120.3341 196.935 119.4653L178.0373 108.5984C177.5857 108.318 174.5291 106.4931 174.2233 106.4081 173.4236 106.1858 171.2665 107.731 170.3259 108.2378 169.0248 108.9388 168.0202 109.5775 166.6412 110.3139 164.0823 111.6802 161.7582 113.1466 159.1801 114.6197 150.3768 119.649 152.6723 119.3596 149.2716 117.4408 148.4881 116.9986 147.6003 116.7259 147.1003 115.8721 147.7947 115.0588 166.6108 104.3402 170.4909 102.1612 171.5871 101.5452 172.9103 101.056 173.499 100.1696 174.5478 100.4797 174.2003 100.5137 175.0649 101.0231 175.5831 101.3284 175.9161 101.4514 176.466 101.768L214.1685 123.5846C214.7357 123.946 216.3889 124.8072 216.6253 125.3055 217.1546 126.4207 216.7693 162.97 216.7498 169.3922 216.7268 176.8895 217.9273 174.8259 211.413 178.6034L173.8854 200.0636C169.1175 198.0193 143.6791 181.9939 141.3694 181.6809" fill="#f95a59" fill-rule="evenodd"/>
<path transform="matrix(2.7777777,0,0,-2.7777777,25,824.99996)" d="M121.9204 137.0384C122.5145 139.7795 121.3909 138.9093 123.2436 144.3518 122.0814 144.6372 95.8873 159.9534 92.9852 161.4523 90.8952 162.5321 90.9417 162.3566 90.9255 165.0657L90.8722 195.0721C90.8759 198.3407 90.6537 203.7742 91.1653 206.7406 92.5863 207.7733 94.3747 208.5525 95.8893 209.4701 97.4228 210.3993 99.0102 211.2001 100.6279 212.1695 104.4876 214.4826 128.5002 228.276 129.2494 228.2709L157.7713 212.0749C159.6937 210.8877 166.2092 207.4368 167.3226 206.5348L167.4179 200.5452C167.9641 200.6782 172.2061 202.9776 172.5953 203.2665L172.6379 209.4721C171.555 210.4815 142.8026 226.787 140.4255 228.0912 138.7797 228.9943 130.4912 234.0201 129.2445 234.0383 127.7544 234.0601 109.9857 223.3633 107.295 221.8292 105.0591 220.5541 86.1335 209.954 85.8736 209.2323L85.8229 159.5112 117.0479 141.5945C117.8359 141.1571 118.6328 140.802 119.4182 140.3663 120.274 139.8915 120.82 139.4045 121.5848 138.9611 121.7129 137.7048 121.4348 137.594 121.9204 137.0384" fill="#f95a59" fill-rule="evenodd"/>
<path transform="matrix(2.7777777,0,0,-2.7777777,25,824.99996)" d="M153.6024 147.7959 153.2667 147.5674C153.2146 147.5402 153.1508 147.4977 153.091 147.4713 151.5192 146.7757 150.6696 147.9668 149.055 146.8531L148.4209 147.4279 148.4206 128.2836C146.2666 126.5448 110.2405 106.3375 110.0636 106.3429 109.4445 106.3616 92.7094 116.2089 90.8405 117.3104 89.6502 118.012 72.2361 127.4808 71.947 128.5492L72.0357 171.7997C73.0607 173.3221 80.445 176.6594 82.4502 178.2717L82.4352 184.0232C81.1074 183.5597 67.8943 175.8903 67.1454 175.1428 66.6275 167.3033 67.0822 157.9558 67.0825 149.9522 67.0825 147.2511 66.8673 126.0009 67.2202 125.2321 67.5437 124.5283 81.7767 116.4821 83.196 115.6595 87.1832 113.349 109.4749 100.5143 110.2734 100.5435 110.8641 100.565 145.2127 120.3321 152.1232 124.4319L152.892 124.8809C152.9317 124.9072 153.0068 124.9651 153.0386 124.9872 154.3564 125.9025 153.307 144.2679 153.6024 147.7959" fill="#f95a59" fill-rule="evenodd"/>
<path transform="matrix(2.7777777,0,0,-2.7777777,25,824.99996)" d="M132.7238 166.3268 132.5914 150.0307C133.4041 149.8864 133.7306 149.9655 134.2502 149.6455 136.1367 149.703 136.6322 148.8954 138.1255 148.7157L141.0398 152.1122C139.6831 154.2609 139.4957 154.9193 139.5272 158.1129 139.576 163.0877 140.7314 162.2648 141.0052 164.0991 139.3523 164.6872 138.5986 166.6225 137.4055 167.7101 136.6872 167.5695 135.9924 167.1783 135.0916 166.898 134.2789 166.6449 133.6439 166.5235 132.7238 166.3268" fill="#ffffff" fill-rule="evenodd"/>
<path transform="matrix(2.7777777,0,0,-2.7777777,25,824.99996)" d="M133.0894 168.2303V146.8542H132.0894V168.2303Z" fill="#f55d5a"/>
<path transform="matrix(2.7777777,0,0,-2.7777777,25,824.99996)" d="M137.0477 170.572 147.5819 160.0379 147.0892 159.5452 136.5551 170.079Z" fill="#ff2f2b"/>
<path transform="matrix(2.7777777,0,0,-2.7777777,25,824.99996)" d="M146.9696 157.8628 136.4355 147.3287 136.9284 146.8361 147.4625 157.3702Z" fill="#ff2f2b"/>
<path transform="matrix(2.7777777,0,0,-2.7777777,25,824.99996)" d="M149.8467 167.9695C155.8057 167.9695 160.6365 163.1387 160.6365 157.1797 160.6365 151.2207 155.8057 146.3899 149.8467 146.3899 143.8877 146.3899 139.0569 151.2207 139.0569 157.1797 139.0569 163.1387 143.8877 167.9695 149.8467 167.9695" fill="#ff2e2a" fill-rule="evenodd"/>
<path transform="matrix(2.7777777,0,0,-2.7777777,25,824.99996)" d="M132.8179 188.2236C138.7769 188.2236 143.6077 183.3928 143.6077 177.4338 143.6077 171.4748 138.7769 166.644 132.8179 166.644 126.8589 166.644 122.0281 171.4748 122.0281 177.4338 122.0281 183.3928 126.8589 188.2236 132.8179 188.2236" fill="#ff2e2a" fill-rule="evenodd"/>
<path transform="matrix(2.7777777,0,0,-2.7777777,25,824.99996)" d="M131.1103 149.8218C137.0693 149.8218 141.9001 144.991 141.9001 139.032 141.9001 133.073 137.0693 128.2422 131.1103 128.2422 125.1513 128.2422 120.3205 133.073 120.3205 139.032 120.3205 144.991 125.1513 149.8218 131.1103 149.8218" fill="#ff2e2a" fill-rule="evenodd"/>
<path transform="matrix(2.7777777,0,0,-2.7777777,25,824.99996)" d="M14.8674 74.759V95.745H22.5105C24.8533 95.745 26.6516 95.3152 27.9105 94.4561 29.1694 93.6017 29.7989 92.3879 29.7989 90.8294 29.7989 89.6953 29.4143 88.7063 28.6498 87.857 27.8804 87.0077 26.9065 86.4184 25.7125 86.0888V86.0287C27.2061 85.8438 28.4 85.2894 29.2944 84.3752 30.1836 83.4559 30.6332 82.3419 30.6332 81.0232 30.6332 79.0999 29.9438 77.5763 28.5698 76.4476 27.1911 75.3233 25.3128 74.759 22.9351 74.759ZM19.5982 92.2629V87.2875H21.6763C22.6502 87.2875 23.4196 87.5222 23.9791 87.997 24.5435 88.4716 24.8233 89.121 24.8233 89.9501 24.8233 91.4936 23.6693 92.2629 21.3664 92.2629ZM19.5982 83.7757V78.2408H22.1607C23.2498 78.2408 24.1089 78.4956 24.7283 79.005 25.348 79.5095 25.6575 80.204 25.6575 81.0833 25.6575 81.9224 25.3528 82.5769 24.7433 83.0565 24.1291 83.5359 23.2798 83.7757 22.1856 83.7757ZM51.6937 74.759H46.2637L43.0019 80.159C42.7569 80.5686 42.5222 80.9334 42.2974 81.258 42.0727 81.5777 41.8479 81.8524 41.618 82.0823 41.3884 82.3122 41.1486 82.4871 40.8988 82.6118 40.6488 82.7317 40.3792 82.7918 40.0895 82.7918H38.8157V74.759H34.0849V95.745H41.578C46.6736 95.745 49.2211 93.8415 49.2211 90.04 49.2211 89.3058 49.1063 88.6314 48.8815 88.0118 48.6567 87.3924 48.342 86.8329 47.9322 86.3334 47.5226 85.8387 47.0282 85.4093 46.4485 85.0496 45.8643 84.685 45.2197 84.4053 44.5054 84.2003V84.1405C44.82 84.0404 45.1199 83.8857 45.4147 83.666 45.7092 83.446 45.989 83.1912 46.2637 82.8967 46.5386 82.6019 46.7983 82.2872 47.048 81.9524 47.2978 81.6177 47.5226 81.288 47.7275 80.9634ZM38.8157 92.2031V86.3634H40.8637C41.8779 86.3634 42.692 86.6582 43.3066 87.2425 43.9311 87.8372 44.2457 88.5764 44.2457 89.4506 44.2457 91.2889 43.1467 92.2031 40.9487 92.2031ZM72.1103 74.759H66.96L65.4664 79.4296H58.0031L56.5245 74.759H51.3992L59.0423 95.745H64.6472ZM64.3825 83.0565 62.1295 90.11C61.9645 90.6395 61.8446 91.2688 61.7749 91.9981H61.6598C61.6099 91.3839 61.49 90.7744 61.2952 90.1698L59.0122 83.0565ZM93.6108 74.759H88.8401L80.1882 87.9469C79.6836 88.7162 79.329 89.2956 79.134 89.6854H79.079C79.1541 88.9461 79.194 87.8119 79.194 86.2934V74.759H74.7281V95.745H79.8233L88.151 82.9715C88.5305 82.3921 88.88 81.8226 89.2049 81.258H89.2647C89.1848 81.7427 89.1448 82.7067 89.1448 84.1405V95.745H93.6108ZM98.4064 74.759V95.745H105.8445C113.298 95.745 117.0244 92.338 117.0244 85.5142 117.0244 82.2472 116.0053 79.6397 113.9723 77.6863 111.939 75.7329 109.2317 74.759 105.8445 74.759ZM103.1372 91.8984V78.5954H105.48C107.528 78.5954 109.1316 79.2099 110.3006 80.4387 111.4645 81.6676 112.049 83.3411 112.049 85.4592 112.049 87.4573 111.4696 89.0308 110.3156 90.1749 109.1565 91.3238 107.538 91.8984 105.45 91.8984ZM119.5421 75.5631V80.2488C120.3914 79.5345 121.3155 79.0002 122.3096 78.6455 123.3037 78.2906 124.3077 78.1109 125.3217 78.1109 125.9212 78.1109 126.4408 78.1659 126.8804 78.2708 127.3249 78.3808 127.6946 78.5256 127.9945 78.7204 128.2941 78.9103 128.5138 79.1351 128.6586 79.3896 128.8086 79.6496 128.8786 79.9294 128.8786 80.2341 128.8786 80.6437 128.7638 81.0082 128.5288 81.328 128.2941 81.6528 127.9743 81.9524 127.5698 82.2223 127.165 82.497 126.6854 82.7617 126.1261 83.0115 125.5717 83.2663 124.9722 83.526 124.3276 83.7907 122.6891 84.4702 121.4654 85.3044 120.6609 86.2934 119.8568 87.2776 119.4571 88.4665 119.4571 89.8603 119.4571 90.9541 119.6719 91.8933 120.1116 92.6776 120.5512 93.4671 121.1505 94.1114 121.9048 94.6208 122.6642 95.1253 123.5384 95.5001 124.5325 95.7399 125.5266 95.9797 126.5805 96.0996 127.6946 96.0996 128.7887 96.0996 129.7576 96.0296 130.602 95.8997 131.4411 95.7699 132.2206 95.565 132.935 95.2903V90.9142C132.5801 91.1591 132.2005 91.374 131.7858 91.5588 131.3714 91.7436 130.9416 91.8984 130.502 92.0234 130.0674 92.143 129.6278 92.2331 129.1932 92.2929 128.7587 92.3479 128.3491 92.378 127.9593 92.378 127.4199 92.378 126.9354 92.3281 126.4958 92.228 126.0561 92.1231 125.6865 91.9783 125.3818 91.7935 125.0819 91.6087 124.8471 91.3887 124.6774 91.129 124.5124 90.8694 124.4327 90.5797 124.4327 90.2599 124.4327 89.905 124.5226 89.5904 124.7074 89.3157 124.8922 89.0359 125.157 88.7712 125.5017 88.5214 125.8413 88.2765 126.256 88.0319 126.7455 87.7921 127.23 87.5523 127.7844 87.3077 128.399 87.0528 129.2383 86.703 129.9875 86.3283 130.657 85.9337 131.3263 85.5391 131.9009 85.0895 132.3754 84.5949 132.855 84.0954 133.2196 83.526 133.4744 82.8865 133.7292 82.2521 133.854 81.5077 133.854 80.6587 133.854 79.4846 133.6343 78.5055 133.1895 77.7061 132.745 76.9119 132.1455 76.2676 131.3813 75.778 130.6219 75.2834 129.7378 74.9288 128.7286 74.7139 127.7147 74.4993 126.6506 74.3944 125.5266 74.3944 124.3777 74.3944 123.2836 74.4891 122.2447 74.6841 121.2055 74.8789 120.3012 75.1737 119.5421 75.5631ZM158.6316 74.759H154.3853V87.3176C154.3853 88.6714 154.4454 90.1698 154.5653 91.8085H154.4454C154.3754 91.4987 154.3005 91.184 154.2107 90.8742 154.1256 90.5596 154.0358 90.2648 153.9507 89.985 153.8609 89.7103 153.7758 89.4606 153.6911 89.2409 153.6111 89.0209 153.5411 88.8412 153.4813 88.7063L149.4998 81.0533H146.1929L142.3414 88.7363C142.3015 88.8211 142.2516 88.9611 142.1816 89.1507 142.1116 89.3407 142.0415 89.5706 141.9616 89.8401 141.8868 90.11 141.802 90.4096 141.7221 90.7393 141.637 91.074 141.567 91.4287 141.5072 91.8085H141.3774C141.4471 90.8943 141.4922 90.0499 141.5222 89.2757 141.552 88.5064 141.567 87.857 141.567 87.3326V74.759H137.306V95.745H143.1057L146.8074 88.4565C146.9123 88.2218 147.022 87.9769 147.1269 87.7122 147.2369 87.4474 147.3418 87.1826 147.4418 86.923 147.5467 86.6582 147.6366 86.4034 147.7216 86.1537 147.8064 85.9039 147.8665 85.674 147.9064 85.4592H147.9762C148.0363 85.674 148.1012 85.9139 148.1661 86.1834 148.2361 86.4482 148.3109 86.7231 148.3858 86.9927 148.4657 87.2677 148.5456 87.5324 148.6358 87.7921 148.7256 88.0517 148.8155 88.2816 148.9153 88.4866L152.7168 95.745H158.6316ZM181.8853 74.759H176.7351L175.2415 79.4296H167.7781L166.2996 74.759H161.1743L168.8173 95.745H174.4223ZM174.1575 83.0565 171.9045 90.11C171.7396 90.6395 171.6197 91.2688 171.5499 91.9981H171.4348C171.3849 91.3839 171.265 90.7744 171.0703 90.1698L168.7873 83.0565ZM183.5391 75.5631V80.2488C184.3883 79.5345 185.3124 79.0002 186.3065 78.6455 187.3006 78.2906 188.3047 78.1109 189.3186 78.1109 189.9181 78.1109 190.4377 78.1659 190.8774 78.2708 191.3219 78.3808 191.6915 78.5256 191.9914 78.7204 192.291 78.9103 192.5107 79.1351 192.6556 79.3896 192.8055 79.6496 192.8755 79.9294 192.8755 80.2341 192.8755 80.6437 192.7607 81.0082 192.5257 81.328 192.291 81.6528 191.9713 81.9524 191.5668 82.2223 191.162 82.497 190.6824 82.7617 190.1231 83.0115 189.5686 83.2663 188.9691 83.526 188.3245 83.7907 186.6861 84.4702 185.4624 85.3044 184.6579 86.2934 183.8537 87.2776 183.454 88.4665 183.454 89.8603 183.454 90.9541 183.6689 91.8933 184.1085 92.6776 184.5482 93.4671 185.1474 94.1114 185.9017 94.6208 186.6611 95.1253 187.5353 95.5001 188.5294 95.7399 189.5236 95.9797 190.5775 96.0996 191.6915 96.0996 192.7857 96.0996 193.7546 96.0296 194.599 95.8997 195.438 95.7699 196.2176 95.565 196.9319 95.2903V90.9142C196.577 91.1591 196.1974 91.374 195.7827 91.5588 195.3683 91.7436 194.9386 91.8984 194.4989 92.0234 194.0644 92.143 193.6247 92.2331 193.1902 92.2929 192.7556 92.3479 192.346 92.378 191.9563 92.378 191.4168 92.378 190.9324 92.3281 190.4927 92.228 190.0531 92.1231 189.6834 91.9783 189.3787 91.7935 189.0788 91.6087 188.8441 91.3887 188.6743 91.129 188.5093 90.8694 188.4297 90.5797 188.4297 90.2599 188.4297 89.905 188.5195 89.5904 188.7043 89.3157 188.8892 89.0359 189.1539 88.7712 189.4986 88.5214 189.8382 88.2765 190.2529 88.0319 190.7425 87.7921 191.2269 87.5523 191.7814 87.3077 192.3959 87.0528 193.2352 86.703 193.9844 86.3283 194.654 85.9337 195.3232 85.5391 195.8978 85.0895 196.3723 84.5949 196.852 84.0954 197.2165 83.526 197.4713 82.8865 197.7262 82.2521 197.8509 81.5077 197.8509 80.6587 197.8509 79.4846 197.6312 78.5055 197.1865 77.7061 196.742 76.9119 196.1425 76.2676 195.3782 75.778 194.6188 75.2834 193.7347 74.9288 192.7256 74.7139 191.7116 74.4993 190.6475 74.3944 189.5236 74.3944 188.3747 74.3944 187.2805 74.4891 186.2416 74.6841 185.2024 74.8789 184.2982 75.1737 183.5391 75.5631ZM219.4665 74.759H214.7258V83.3063H206.0337V74.759H201.3029V95.745H206.0337V87.3726H214.7258V95.745H219.4665ZM236.8556 74.759H224.267V95.745H236.3709V91.8984H228.9977V87.2277H235.8615V83.3961H228.9977V78.5954H236.8556ZM257.8263 74.759H252.3963L249.1345 80.159C248.8895 80.5686 248.6548 80.9334 248.43 81.258 248.2053 81.5777 247.9805 81.8524 247.7506 82.0823 247.521 82.3122 247.2812 82.4871 247.0314 82.6118 246.7814 82.7317 246.5118 82.7918 246.2221 82.7918H244.9483V74.759H240.2175V95.745H247.7106C252.8062 95.745 255.3537 93.8415 255.3537 90.04 255.3537 89.3058 255.2389 88.6314 255.0141 88.0118 254.7893 87.3924 254.4746 86.8329 254.0648 86.3334 253.6551 85.8387 253.1608 85.4093 252.5811 85.0496 251.9969 84.685 251.3523 84.4053 250.638 84.2003V84.1405C250.9526 84.0404 251.2525 83.8857 251.5473 83.666 251.8418 83.446 252.1216 83.1912 252.3963 82.8967 252.6712 82.6019 252.9309 82.2872 253.1806 81.9524 253.4304 81.6177 253.6551 81.288 253.8601 80.9634ZM244.9483 92.2031V86.3634H246.9963C248.0105 86.3634 248.8246 86.6582 249.4392 87.2425 250.0637 87.8372 250.3783 88.5764 250.3783 89.4506 250.3783 91.2889 249.2793 92.2031 247.0813 92.2031ZM258.8207 75.5631V80.2488C259.67 79.5345 260.5941 79.0002 261.5882 78.6455 262.5823 78.2906 263.5863 78.1109 264.6003 78.1109 265.1998 78.1109 265.7194 78.1659 266.1591 78.2708 266.6035 78.3808 266.9732 78.5256 267.2731 78.7204 267.5727 78.9103 267.7924 79.1351 267.9372 79.3896 268.0872 79.6496 268.1572 79.9294 268.1572 80.2341 268.1572 80.6437 268.0424 81.0082 267.8074 81.328 267.5727 81.6528 267.2529 81.9524 266.8484 82.2223 266.4437 82.497 265.964 82.7617 265.4048 83.0115 264.8503 83.2663 264.2508 83.526 263.6062 83.7907 261.9677 84.4702 260.744 85.3044 259.9396 86.2934 259.1354 87.2776 258.7357 88.4665 258.7357 89.8603 258.7357 90.9541 258.9506 91.8933 259.3902 92.6776 259.8299 93.4671 260.4291 94.1114 261.1834 94.6208 261.9428 95.1253 262.817 95.5001 263.8111 95.7399 264.8052 95.9797 265.8591 96.0996 266.9732 96.0996 268.0673 96.0996 269.0362 96.0296 269.8807 95.8997 270.7197 95.7699 271.4992 95.565 272.2136 95.2903V90.9142C271.8587 91.1591 271.4791 91.374 271.0644 91.5588 270.65 91.7436 270.2203 91.8984 269.7806 92.0234 269.346 92.143 268.9064 92.2331 268.4718 92.2929 268.0373 92.3479 267.6277 92.378 267.2379 92.378 266.6985 92.378 266.214 92.3281 265.7744 92.228 265.3347 92.1231 264.9651 91.9783 264.6604 91.7935 264.3605 91.6087 264.1258 91.3887 263.956 91.129 263.791 90.8694 263.7113 90.5797 263.7113 90.2599 263.7113 89.905 263.8012 89.5904 263.986 89.3157 264.1708 89.0359 264.4356 88.7712 264.7803 88.5214 265.1199 88.2765 265.5346 88.0319 266.0241 87.7921 266.5086 87.5523 267.063 87.3077 267.6776 87.0528 268.5169 86.703 269.2661 86.3283 269.9357 85.9337 270.6049 85.5391 271.1795 85.0895 271.654 84.5949 272.1336 84.0954 272.4982 83.526 272.753 82.8865 273.0078 82.2521 273.1326 81.5077 273.1326 80.6587 273.1326 79.4846 272.9129 78.5055 272.4681 77.7061 272.0237 76.9119 271.4241 76.2676 270.6599 75.778 269.9005 75.2834 269.0164 74.9288 268.0072 74.7139 266.9933 74.4993 265.9292 74.3944 264.8052 74.3944 263.6563 74.3944 262.5622 74.4891 261.5233 74.6841 260.4841 74.8789 259.5798 75.1737 258.8207 75.5631" fill="#f95a59"/>
<path transform="matrix(2.7777777,0,0,-2.7777777,25,824.99996)" d="M91.9261 61.7131H89.2735V54.1227H87.1741V61.7131H84.5371V63.4164H91.9261ZM102.2236 54.1227H96.6487V63.4164H102.009V61.7131H98.7437V59.6446H101.7833V57.9478H98.7437V55.8218H102.2236ZM113.8484 54.4524C113.1715 54.125 112.2843 53.9612 111.1915 53.9612 109.7668 53.9612 108.6452 54.3793 107.8288 55.2178 107.0104 56.0563 106.6034 57.1734 106.6034 58.5694 106.6034 60.0559 107.0612 61.2618 107.9793 62.1865 108.8974 63.1111 110.0897 63.5734 111.5544 63.5734 112.4612 63.5734 113.2268 63.4584 113.8484 63.2285V61.213C113.2268 61.5847 112.5187 61.7706 111.7225 61.7706 110.8508 61.7706 110.145 61.4962 109.6098 60.9474 109.0743 60.3989 108.8067 59.6557 108.8067 58.7177 108.8067 57.8194 109.0587 57.1025 109.5656 56.5696 110.0699 56.0364 110.7513 55.7685 111.6074 55.7685 112.4237 55.7685 113.1715 55.9678 113.8484 56.3661ZM126.9842 54.1227H124.8846V57.9078H121.0354V54.1227H118.9403V63.4164H121.0354V59.7087H124.8846V63.4164H126.9842ZM140.9451 54.1227H138.8324L135.0009 59.963C134.7775 60.3037 134.6204 60.5605 134.5343 60.7329H134.5099C134.5431 60.4054 134.5606 59.9034 134.5606 59.2308V54.1227H132.5829V63.4164H134.8396L138.5271 57.7596C138.6952 57.5031 138.8503 57.2508 138.994 57.0008H139.0207C138.9852 57.2153 138.9674 57.6425 138.9674 58.2775V63.4164H140.9451ZM150.4709 53.9612C149.1389 53.9612 148.055 54.3949 147.2165 55.2597 146.3783 56.1271 145.9602 57.2553 145.9602 58.6468 145.9602 60.1157 146.3848 61.3037 147.2366 62.2108 148.0881 63.1176 149.2143 63.5734 150.6189 63.5734 151.9464 63.5734 153.0193 63.1378 153.8379 62.2704 154.6563 61.401 155.0656 60.2552 155.0656 58.8348 155.0656 57.3746 154.641 56.1957 153.7914 55.302 152.9442 54.4082 151.8358 53.9612 150.4709 53.9612ZM150.5616 61.7706C149.8272 61.7706 149.243 61.4962 148.8115 60.9432 148.3801 60.3921 148.1635 59.6645 148.1635 58.7574 148.1635 57.837 148.3801 57.1093 148.8115 56.5716 149.243 56.0364 149.8093 55.7685 150.5083 55.7685 151.2317 55.7685 151.8026 56.0296 152.2273 56.5495 152.6499 57.0716 152.8622 57.7928 152.8622 58.7177 152.8622 59.682 152.6564 60.4321 152.2471 60.9676 151.8358 61.5027 151.274 61.7706 150.5616 61.7706ZM165.6156 54.1227H160.0804V63.4164H162.1755V55.8218H165.6156ZM173.9375 53.9612C172.6055 53.9612 171.5216 54.3949 170.6831 55.2597 169.8449 56.1271 169.4268 57.2553 169.4268 58.6468 169.4268 60.1157 169.8514 61.3037 170.7032 62.2108 171.5547 63.1176 172.6809 63.5734 174.0855 63.5734 175.413 63.5734 176.4859 63.1378 177.3045 62.2704 178.1229 61.401 178.5322 60.2552 178.5322 58.8348 178.5322 57.3746 178.1076 56.1957 177.258 55.302 176.4108 54.4082 175.3024 53.9612 173.9375 53.9612ZM174.0283 61.7706C173.2938 61.7706 172.7096 61.4962 172.2781 60.9432 171.8467 60.3921 171.6301 59.6645 171.6301 58.7574 171.6301 57.837 171.8467 57.1093 172.2781 56.5716 172.7096 56.0364 173.2759 55.7685 173.975 55.7685 174.6984 55.7685 175.2693 56.0296 175.6939 56.5495 176.1165 57.0716 176.3289 57.7928 176.3289 58.7177 176.3289 59.682 176.1231 60.4321 175.7137 60.9676 175.3024 61.5027 174.7406 61.7706 174.0283 61.7706ZM191.177 54.7444C190.2699 54.2222 189.1417 53.9612 187.7924 53.9612 186.2991 53.9612 185.1199 54.375 184.2571 55.2025 183.3965 56.0296 182.9653 57.1691 182.9653 58.6202 182.9653 60.0803 183.4364 61.2706 184.379 62.1907 185.3189 63.1134 186.5733 63.5734 188.1374 63.5734 189.1219 63.5734 189.9913 63.4363 190.7413 63.1641V61.1997C190.0244 61.6156 189.1485 61.8214 188.1108 61.8214 187.2414 61.8214 186.5358 61.5404 185.9893 60.9763 185.4408 60.4123 185.1687 59.6599 185.1687 58.7177 185.1687 57.7641 185.4142 57.0251 185.9031 56.501 186.3941 55.9789 187.0557 55.7178 187.8897 55.7178 188.392 55.7178 188.79 55.7887 189.0822 55.9301V57.7463H187.2238V59.419H191.177ZM203.4632 63.4164 200.4369 57.4279V54.1227H198.3441V57.3902L195.3952 63.4164H197.7866L199.2844 59.9499C199.311 59.8856 199.3816 59.6313 199.4967 59.1911H199.5233C199.5809 59.5029 199.6472 59.7464 199.7246 59.9233L201.2488 63.4164Z" fill="#1a1a18"/>
</g>
</g>
</svg>
